# xmcd
#
# Track frame offsets:
#	150
#	21702
#	43369
#	68359
#	85399
#	114721
#	140254
#	159657
#	180666
#	201911
#	224696
#	252538
#	274466
#	292549
# Disc length: 4154 seconds
# Revision: 2
# Processed by: cddbd v1.5.2PL0 Copyright (c) Steve Scherf et al.
#
# Submitted via: libkcddb 0.31
#
DISCID=df10380e
DTITLE=GEORGE MICHAEL - Ladies&Gentlemen
DYEAR=1900
DGENRE=Unknown
TTITLE0=Outside
TTITLE1=As
TTITLE2=Fastlove
TTITLE3=Too funky
TTITLE4=Freedom 90
TTITLE5=Star people'97
TTITLE6=Killer/Papa was a rollin'stone
TTITLE7=I want your sex (part II)
TTITLE8=The strangest thing 97
TTITLE9=Fantasy
TTITLE10=Spinning the wheel
TTITLE11=I knew you were waiting (for me)
TTITLE12=Faith
TTITLE13=Somebody to love
EXTD=The best of George Michael
EXTT0=
EXTT1=
EXTT2=
EXTT3=
EXTT4=
EXTT5=
EXTT6=
EXTT7=
EXTT8=
EXTT9=
EXTT10=
EXTT11=
EXTT12=
EXTT13=
PLAYORDER=
